<svg width="254" height="38" viewBox="0 0 254 38" fill="none" xmlns="http://www.w3.org/2000/svg">
<path d="M3.54 9.96L1.08 9.57V7.71H17.64L17.94 13.14H15.54L14.43 9.84L7.95 9.51V18L12.42 17.91L12.99 15.27H14.91V22.89H13.02L12.42 20.19L7.95 20.07V27.9L12.54 28.2V30H1.23V28.2L3.54 27.9V9.96ZM19.6821 25.32C19.6821 23.5 20.5921 22.13 22.4121 21.21C24.2521 20.29 26.6221 19.82 29.5221 19.8V19.11C29.5221 18.29 29.4321 17.65 29.2521 17.19C29.0921 16.73 28.7821 16.39 28.3221 16.17C27.8821 15.93 27.2321 15.81 26.3721 15.81C25.3921 15.81 24.5121 15.94 23.7321 16.2C22.9521 16.44 22.1421 16.76 21.3021 17.16L20.3721 15.24C20.6721 14.98 21.1721 14.67 21.8721 14.31C22.5921 13.95 23.4421 13.64 24.4221 13.38C25.4021 13.1 26.4121 12.96 27.4521 12.96C28.9921 12.96 30.1921 13.16 31.0521 13.56C31.9321 13.96 32.5621 14.6 32.9421 15.48C33.3221 16.36 33.5121 17.54 33.5121 19.02V28.2H35.1321V29.88C34.7321 29.98 34.1621 30.08 33.4221 30.18C32.6821 30.28 32.0321 30.33 31.4721 30.33C30.7921 30.33 30.3321 30.23 30.0921 30.03C29.8721 29.83 29.7621 29.42 29.7621 28.8V27.99C29.2221 28.59 28.5221 29.13 27.6621 29.61C26.8021 30.09 25.8321 30.33 24.7521 30.33C23.8321 30.33 22.9821 30.14 22.2021 29.76C21.4421 29.36 20.8321 28.79 20.3721 28.05C19.9121 27.29 19.6821 26.38 19.6821 25.32ZM26.6721 27.84C27.0921 27.84 27.5721 27.72 28.1121 27.48C28.6521 27.22 29.1221 26.91 29.5221 26.55V21.63C27.7221 21.63 26.3721 21.94 25.4721 22.56C24.5921 23.16 24.1521 23.94 24.1521 24.9C24.1521 25.86 24.3721 26.59 24.8121 27.09C25.2721 27.59 25.8921 27.84 26.6721 27.84ZM40.5743 10.59C39.8543 10.59 39.2843 10.38 38.8643 9.96C38.4443 9.54 38.2343 9 38.2343 8.34C38.2343 7.58 38.4743 6.95 38.9543 6.45C39.4343 5.95 40.0743 5.7 40.8743 5.7C41.6743 5.7 42.2843 5.92 42.7043 6.36C43.1243 6.78 43.3343 7.31 43.3343 7.95C43.3343 8.75 43.0943 9.39 42.6143 9.87C42.1343 10.35 41.4643 10.59 40.6043 10.59H40.5743ZM38.9843 16.17L36.8543 15.6V13.59L42.3443 12.93H42.4043L43.2443 13.53V27.96L45.2543 28.2V30H36.8843V28.2L38.9843 27.93V16.17ZM47.4047 28.23L49.3847 27.99V16.17L47.4647 15.63V13.56L52.1147 12.93H52.2047L52.9547 13.53V14.19L52.8647 16.62H52.9547C53.0947 16.22 53.4247 15.73 53.9447 15.15C54.4647 14.55 55.1147 14.03 55.8947 13.59C56.6947 13.13 57.5547 12.9 58.4747 12.9C58.9147 12.9 59.2947 12.96 59.6147 13.08V17.58C59.0147 17.16 58.2847 16.95 57.4247 16.95C55.9647 16.95 54.6947 17.34 53.6147 18.12V27.96L57.0947 28.23V30H47.4047V28.23ZM68.6358 9.69L64.3458 9.84L63.1758 16.38H60.6558L61.1658 7.71H80.5158L80.8758 16.38H78.5058L77.3358 9.84L73.1058 9.69V27.9L77.3058 28.2V30H64.7958V28.2L68.6358 27.9V9.69ZM82.8832 28.23L84.8632 27.99V16.17L82.9432 15.63V13.56L87.5932 12.93H87.6832L88.4332 13.53V14.19L88.3432 16.62H88.4332C88.5732 16.22 88.9032 15.73 89.4232 15.15C89.9432 14.55 90.5932 14.03 91.3732 13.59C92.1732 13.13 93.0332 12.9 93.9532 12.9C94.3932 12.9 94.7732 12.96 95.0932 13.08V17.58C94.4932 17.16 93.7632 16.95 92.9032 16.95C91.4432 16.95 90.1732 17.34 89.0932 18.12V27.96L92.5732 28.23V30H82.8832V28.23ZM96.6743 25.32C96.6743 23.5 97.5843 22.13 99.4043 21.21C101.244 20.29 103.614 19.82 106.514 19.8V19.11C106.514 18.29 106.424 17.65 106.244 17.19C106.084 16.73 105.774 16.39 105.314 16.17C104.874 15.93 104.224 15.81 103.364 15.81C102.384 15.81 101.504 15.94 100.724 16.2C99.9443 16.44 99.1343 16.76 98.2943 17.16L97.3643 15.24C97.6643 14.98 98.1643 14.67 98.8643 14.31C99.5843 13.95 100.434 13.64 101.414 13.38C102.394 13.1 103.404 12.96 104.444 12.96C105.984 12.96 107.184 13.16 108.044 13.56C108.924 13.96 109.554 14.6 109.934 15.48C110.314 16.36 110.504 17.54 110.504 19.02V28.2H112.124V29.88C111.724 29.98 111.154 30.08 110.414 30.18C109.674 30.28 109.024 30.33 108.464 30.33C107.784 30.33 107.324 30.23 107.084 30.03C106.864 29.83 106.754 29.42 106.754 28.8V27.99C106.214 28.59 105.514 29.13 104.654 29.61C103.794 30.09 102.824 30.33 101.744 30.33C100.824 30.33 99.9743 30.14 99.1943 29.76C98.4343 29.36 97.8243 28.79 97.3643 28.05C96.9043 27.29 96.6743 26.38 96.6743 25.32ZM103.664 27.84C104.084 27.84 104.564 27.72 105.104 27.48C105.644 27.22 106.114 26.91 106.514 26.55V21.63C104.714 21.63 103.364 21.94 102.464 22.56C101.584 23.16 101.144 23.94 101.144 24.9C101.144 25.86 101.364 26.59 101.804 27.09C102.264 27.59 102.884 27.84 103.664 27.84ZM115.676 16.17L113.756 15.63V13.56L118.736 12.93H118.826L119.576 13.53V14.7L119.546 15.42C120.246 14.76 121.156 14.19 122.276 13.71C123.396 13.23 124.526 12.99 125.666 12.99C126.886 12.99 127.836 13.22 128.516 13.68C129.216 14.12 129.716 14.82 130.016 15.78C130.316 16.74 130.466 18.04 130.466 19.68V27.96L132.296 28.2V30H124.556V28.2L126.176 27.96V19.68C126.176 18.64 126.106 17.83 125.966 17.25C125.826 16.65 125.566 16.22 125.186 15.96C124.826 15.68 124.306 15.54 123.626 15.54C122.486 15.54 121.266 16.03 119.966 17.01V27.93L121.766 28.2V30H113.936V28.2L115.676 27.93V16.17ZM137.746 27.54C137.906 27.78 138.266 28.01 138.826 28.23C139.406 28.43 139.986 28.53 140.566 28.53C141.506 28.53 142.206 28.34 142.666 27.96C143.146 27.56 143.386 27.04 143.386 26.4C143.386 25.74 143.096 25.21 142.516 24.81C141.936 24.39 140.956 23.88 139.576 23.28L138.736 22.92C137.356 22.34 136.326 21.64 135.646 20.82C134.966 20 134.626 18.94 134.626 17.64C134.626 16.74 134.896 15.94 135.436 15.24C135.976 14.52 136.736 13.96 137.716 13.56C138.696 13.16 139.826 12.96 141.106 12.96C142.046 12.96 142.846 13.02 143.506 13.14C144.186 13.26 144.896 13.42 145.636 13.62C146.036 13.76 146.336 13.84 146.536 13.86V17.79H144.166L143.476 15.51C143.356 15.31 143.086 15.13 142.666 14.97C142.246 14.81 141.766 14.73 141.226 14.73C140.406 14.73 139.746 14.91 139.246 15.27C138.766 15.61 138.526 16.09 138.526 16.71C138.526 17.27 138.696 17.74 139.036 18.12C139.376 18.48 139.746 18.76 140.146 18.96C140.546 19.16 141.286 19.49 142.366 19.95C143.446 20.41 144.336 20.85 145.036 21.27C145.756 21.69 146.346 22.24 146.806 22.92C147.286 23.58 147.526 24.39 147.526 25.35C147.526 26.83 146.946 28.03 145.786 28.95C144.626 29.87 142.956 30.33 140.776 30.33C139.756 30.33 138.836 30.24 138.016 30.06C137.216 29.88 136.286 29.64 135.226 29.34L134.566 29.13V25.17H137.056L137.746 27.54ZM151.713 8.07L149.493 7.68V6.06L155.043 5.4H155.103L155.913 5.97V27.96L158.103 28.2V30H149.613V28.2L151.713 27.93V8.07ZM159.838 25.32C159.838 23.5 160.748 22.13 162.568 21.21C164.408 20.29 166.778 19.82 169.678 19.8V19.11C169.678 18.29 169.588 17.65 169.408 17.19C169.248 16.73 168.938 16.39 168.478 16.17C168.038 15.93 167.388 15.81 166.528 15.81C165.548 15.81 164.668 15.94 163.888 16.2C163.108 16.44 162.298 16.76 161.458 17.16L160.528 15.24C160.828 14.98 161.328 14.67 162.028 14.31C162.748 13.95 163.598 13.64 164.578 13.38C165.558 13.1 166.568 12.96 167.608 12.96C169.148 12.96 170.348 13.16 171.208 13.56C172.088 13.96 172.718 14.6 173.098 15.48C173.478 16.36 173.668 17.54 173.668 19.02V28.2H175.288V29.88C174.888 29.98 174.318 30.08 173.578 30.18C172.838 30.28 172.188 30.33 171.628 30.33C170.948 30.33 170.488 30.23 170.248 30.03C170.028 29.83 169.918 29.42 169.918 28.8V27.99C169.378 28.59 168.678 29.13 167.818 29.61C166.958 30.09 165.988 30.33 164.908 30.33C163.988 30.33 163.138 30.14 162.358 29.76C161.598 29.36 160.988 28.79 160.528 28.05C160.068 27.29 159.838 26.38 159.838 25.32ZM166.828 27.84C167.248 27.84 167.728 27.72 168.268 27.48C168.808 27.22 169.278 26.91 169.678 26.55V21.63C167.878 21.63 166.528 21.94 165.628 22.56C164.748 23.16 164.308 23.94 164.308 24.9C164.308 25.86 164.528 26.59 164.968 27.09C165.428 27.59 166.048 27.84 166.828 27.84ZM182.201 30.27C180.941 30.27 180.011 29.98 179.411 29.4C178.811 28.82 178.511 27.9 178.511 26.64V15.63H176.561V14.07C176.721 14.01 177.011 13.91 177.431 13.77C177.851 13.61 178.171 13.48 178.391 13.38C178.731 13.12 179.021 12.67 179.261 12.03C179.441 11.61 179.771 10.57 180.251 8.91H182.651L182.771 13.32H187.361V15.63H182.801V24.06C182.801 25.18 182.831 25.97 182.891 26.43C182.951 26.89 183.081 27.19 183.281 27.33C183.481 27.45 183.831 27.51 184.331 27.51C184.831 27.51 185.351 27.46 185.891 27.36C186.431 27.24 186.881 27.1 187.241 26.94L187.811 28.62C187.251 29.04 186.431 29.42 185.351 29.76C184.271 30.1 183.221 30.27 182.201 30.27ZM192.977 10.59C192.257 10.59 191.687 10.38 191.267 9.96C190.847 9.54 190.637 9 190.637 8.34C190.637 7.58 190.877 6.95 191.357 6.45C191.837 5.95 192.477 5.7 193.277 5.7C194.077 5.7 194.687 5.92 195.107 6.36C195.527 6.78 195.737 7.31 195.737 7.95C195.737 8.75 195.497 9.39 195.017 9.87C194.537 10.35 193.867 10.59 193.007 10.59H192.977ZM191.387 16.17L189.257 15.6V13.59L194.747 12.93H194.807L195.647 13.53V27.96L197.657 28.2V30H189.287V28.2L191.387 27.93V16.17ZM199.807 21.69C199.807 19.81 200.177 18.21 200.917 16.89C201.677 15.57 202.687 14.58 203.947 13.92C205.207 13.24 206.577 12.9 208.057 12.9C210.577 12.9 212.517 13.68 213.877 15.24C215.257 16.78 215.947 18.88 215.947 21.54C215.947 23.44 215.567 25.06 214.807 26.4C214.067 27.72 213.067 28.71 211.807 29.37C210.567 30.01 209.197 30.33 207.697 30.33C205.197 30.33 203.257 29.56 201.877 28.02C200.497 26.46 199.807 24.35 199.807 21.69ZM207.937 28.38C210.197 28.38 211.327 26.2 211.327 21.84C211.327 19.56 211.057 17.83 210.517 16.65C209.977 15.45 209.097 14.85 207.877 14.85C205.557 14.85 204.397 17.03 204.397 21.39C204.397 23.67 204.677 25.41 205.237 26.61C205.817 27.79 206.717 28.38 207.937 28.38ZM220.354 16.17L218.434 15.63V13.56L223.414 12.93H223.504L224.254 13.53V14.7L224.224 15.42C224.924 14.76 225.834 14.19 226.954 13.71C228.074 13.23 229.204 12.99 230.344 12.99C231.564 12.99 232.514 13.22 233.194 13.68C233.894 14.12 234.394 14.82 234.694 15.78C234.994 16.74 235.144 18.04 235.144 19.68V27.96L236.974 28.2V30H229.234V28.2L230.854 27.96V19.68C230.854 18.64 230.784 17.83 230.644 17.25C230.504 16.65 230.244 16.22 229.864 15.96C229.504 15.68 228.984 15.54 228.304 15.54C227.164 15.54 225.944 16.03 224.644 17.01V27.93L226.444 28.2V30H218.614V28.2L220.354 27.93V16.17ZM242.424 27.54C242.584 27.78 242.944 28.01 243.504 28.23C244.084 28.43 244.664 28.53 245.244 28.53C246.184 28.53 246.884 28.34 247.344 27.96C247.824 27.56 248.064 27.04 248.064 26.4C248.064 25.74 247.774 25.21 247.194 24.81C246.614 24.39 245.634 23.88 244.254 23.28L243.414 22.92C242.034 22.34 241.004 21.64 240.324 20.82C239.644 20 239.304 18.94 239.304 17.64C239.304 16.74 239.574 15.94 240.114 15.24C240.654 14.52 241.414 13.96 242.394 13.56C243.374 13.16 244.504 12.96 245.784 12.96C246.724 12.96 247.524 13.02 248.184 13.14C248.864 13.26 249.574 13.42 250.314 13.62C250.714 13.76 251.014 13.84 251.214 13.86V17.79H248.844L248.154 15.51C248.034 15.31 247.764 15.13 247.344 14.97C246.924 14.81 246.444 14.73 245.904 14.73C245.084 14.73 244.424 14.91 243.924 15.27C243.444 15.61 243.204 16.09 243.204 16.71C243.204 17.27 243.374 17.74 243.714 18.12C244.054 18.48 244.424 18.76 244.824 18.96C245.224 19.16 245.964 19.49 247.044 19.95C248.124 20.41 249.014 20.85 249.714 21.27C250.434 21.69 251.024 22.24 251.484 22.92C251.964 23.58 252.204 24.39 252.204 25.35C252.204 26.83 251.624 28.03 250.464 28.95C249.304 29.87 247.634 30.33 245.454 30.33C244.434 30.33 243.514 30.24 242.694 30.06C241.894 29.88 240.964 29.64 239.904 29.34L239.244 29.13V25.17H241.734L242.424 27.54Z" fill="black"/>
</svg>
